<svg xmlns="http://www.w3.org/2000/svg" data-name="Layer 1" viewBox="0 0 5 6.25" x="0px" y="0px"><title>abstract</title><path d="M.70581,1.95791c.00073-.02762.001-.05536.00236-.08283.00087-.01759.00412-.03459.005-.05218C.71536,1.77544.71886,1.72763.718,1.6803.71738,1.64171.71085,1.60376.70755,1.56524.70367,1.52.70047,1.47446.69647,1.42247a.46118.46118,0,0,0,.00826-.19455C.70205,1.15505.692,1.0837.68708,1.011.68473.97654.68667.94054.68673.90522.6869.81048.68739.71574.68718.621.68706.56421.69605.51625.72044.49993.74367.48438.77075.46648.79013.51981A.43507.43507,0,0,1,.80291.59821c.00816.06149.01584.1233.02415.18841A.85987.85987,0,0,1,.928.83183.09421.09421,0,0,1,.9471.887c.00408.10972.00635.21988.0076.33.00115.1017-.001.20361.00075.30523.0008.048.009.09519.01062.14329.00372.11266.00662.22559.0077.33851.00128.134.0003.268.00594.40493l.00794-.03674a.57726.57726,0,0,1,.01273.07176.86564.86564,0,0,1,.00469.19121.627.627,0,0,0,.00844.19085c.00075.01991-.00079.0402-.00042.06024.00053.02857.00176.05708.00284.08558l.00739.19084.00254.03984c.02988-.01219.04029-.05084.03472-.13305-.00493-.07286-.01258-.14482-.01692-.21782a.81741.81741,0,0,1,.0012-.11175,2.92743,2.92743,0,0,0-.02254-.31523c-.00116-.061.00218-.12231.00149-.18337-.00085-.07511-.00438-.15-.00569-.22515-.00167-.09583-.00075-.192-.00371-.2876C1.00953,1.57079.99977,1.4136.997,1.25572.99384,1.08125.99624.90628.99624.73414c.03369-.03091.06424-.10158.096-.00431L1.10068.70443l.00417.00816C1.11428.85,1.12516.987,1.13218,1.125c.00416.08176.00205.1651.003.24771q.00223.19424.00494.38846a.126.126,0,0,0,.00457.03827.78914.78914,0,0,1,.01689.30132c.00035.04716.00014.09493.00365.14109a.30664.30664,0,0,0,.02413.06782c.0031-.06644.0069-.11037.00691-.1543,0-.23795.00353-.4752-.01558-.71256-.01126-.13983-.0076-.28649-.00728-.43.00022-.09984.02392-.1384.07378-.13578.05088.00268.06274.02764.06466.138.00046.0265-.00062.05311-.00054.07966.00014.04511.00064.09021.001.13532l.01049.00061a.45154.45154,0,0,0,.00585-.07594.33531.33531,0,0,1,.024-.14709c.00746-.02305.03659-.01635.05552-.01227.00848.00182.01583.03.02513.04925l.017-.04918.04013.50432L1.474,1.49752c-.00131.06178-.00526.12414-.0032.18547.002.06061.01069.12.01517.18036.00108.01455.01352.05-.0091.04124a.12569.12569,0,0,0,.00063.02987c.01032.01958.02181.03607.03952.06424,0-.04661-.00019-.08095.00005-.11527a.16761.16761,0,0,1,.013-.09528.09035.09035,0,0,0-.00577-.08369.08157.08157,0,0,1-.00648-.03468c-.00125-.08387-.00133-.16782-.00258-.25168-.00141-.09474-.00485-.18939-.00517-.28412A.192.192,0,0,1,1.56374.98075c.02913-.01977.028.04415.042.07l.00485-.02658a.6054.6054,0,0,1,.04677.26157c.0103.09561.01686.1936.02258.29128.00523.08934.00679.17973.01063.26952q.009.21121.01912.42217a.43627.43627,0,0,0,.01876.16485.08172.08172,0,0,1,.00373.0251c.007.13531.01076.27191.02176.40551A1.07913,1.07913,0,0,0,1.7684,3.084a.71885.71885,0,0,1,.0086.1329l.01194-.00112c0-.08138-.00131-.16289.00035-.24409.00184-.08978.00833-.17918.00923-.26892.00088-.08754-.002-.17541-.00455-.26294-.00407-.1385-.011-.27666-.01361-.41527-.00429-.22687-.00639-.454-.00877-.681-.00072-.06842.03086-.11705.06162-.1051a.161.161,0,0,0,.05821.00128c.00682.17517.01565.34133.0189.508.002.10393-.00534.20865-.00642.31313-.00035.03386.00682.06779.00892.10219.00252.04131.00322.08318.00487.12477.00368.09329.025.1783.0252.27339.00009.03775.00083.07574.00292.11316a.63254.63254,0,0,0,.01244.09606.49837.49837,0,0,0,.0005-.22378.38051.38051,0,0,1-.00181-.0591l.01367-.00293c-.0025-.08759-.00586-.18324-.00778-.279-.00192-.09549-.00114-.19131-.004-.28661-.0015-.0498-.00976-.09843-.01222-.14827-.00188-.03811.00126-.07732.00094-.116-.00068-.08214-.00035-.16464-.00389-.24624-.00272-.06267-.01447-.12388-.01546-.18628-.00142-.089.00112-.17907.00627-.26742.00314-.05391.01673-.10321.04476-.10953.02617-.0059.06317.04608.06954.09427.00492.03717.00836.07546.01154.11364.00559.06694.01047.13418.01866.20027.01562-.07986.03847-.11335.07155-.101.04434.01648.06715.07508.06666.1783-.00022.04591-.00455.09168-.00658.13761a.10812.10812,0,0,0,.0022.02608c.0127.05815.02574.11592.04085.18356a.28243.28243,0,0,0,.00786-.0538c-.00548-.11791-.01237-.2355-.01891-.35315a.30334.30334,0,0,1-.00342-.05272A2.195,2.195,0,0,0,2.24262.897.10955.10955,0,0,1,2.26345.819c.03383-.03944.07915-.02968.09944.0275a.20145.20145,0,0,1,.00524.045c.01027.155.01963.31024.03075.46488.00623.08663.01527.17223.016.26251l-.01071-.04278L2.39866,1.577l.02691.49047-.006.00363L2.4161,2.053l-.00676.00237c.00487.04223.00888.08508.01481.12654.01077.07532.02522.14851.033.22523a.67669.67669,0,0,1-.00846.114l.01171-.0064.01726.04885.011-.0881-.02336-.021a.362.362,0,0,0,.01232-.03735.15976.15976,0,0,0,.00819-.10686.06985.06985,0,0,1-.00154-.01947c-.00042-.13558-.00027-.27118-.00142-.40672-.00027-.03143-.00674-.06255-.00716-.094-.00112-.0843-.00007-.16873-.00079-.25307-.00028-.03317-.0024-.06642-.00463-.09931a2.783,2.783,0,0,1,.00631-.43443A.29791.29791,0,0,0,2.4767.96276c-.00457-.08828.00186-.12749.03564-.16061C2.537.778,2.55992.79675,2.58465.829c.03526.046.01948.12384.03179.18261.012.05739.02133.11823.02912.17931a.58367.58367,0,0,1,.004.10838,1.427,1.427,0,0,0,.01617.27226c.0045.03746-.00658.08316-.00461.12365.003.06214.00968.124.01756.18418a.99041.99041,0,0,1,.00711.2614A.60669.60669,0,0,0,2.695,2.2655c.00648.06227.01406.124.02707.188.00392-.04473.006-.09084.01225-.13384a1.26148,1.26148,0,0,0-.002-.15306c.00129-.04422-.00137-.08907-.00257-.1336a2.84906,2.84906,0,0,0-.01159-.32746,2.02736,2.02736,0,0,1-.0125-.35612c.00279-.12347.00817-.24663.011-.3701A.18555.18555,0,0,0,2.7062.91878a.412.412,0,0,1,.025-.293C2.753.5989,2.79046.62568,2.80836.665a.42593.42593,0,0,1,.0339.20378c-.00192.04637.00994.09487.01246.14324.00147.02832-.00863.06354-.0042.08658a2.73877,2.73877,0,0,1,.022.31734c.01116.1563.01676.3146.025.472a1.48811,1.48811,0,0,0,.011.16848c.02382.13566.01967.2828.03968.43488.00876-.11309.01975-.21119.023-.31056.00252-.07775-.00428-.15714-.00751-.23568a1.653,1.653,0,0,1-.00793-.2389.87832.87832,0,0,0,.00722-.14657l-.002-.02673a.47056.47056,0,0,1-.00323-.06046l.00245-.00973a3.813,3.813,0,0,1-.0099-.49256c-.0064-.091.05461-.19611.094-.1703a.0522.0522,0,0,1,.01444.02854.48565.48565,0,0,1,.03665.20329c.02915.05081.00537.12217.01393.18034.00623.04233.019.0808.02283.12371a3.12129,3.12129,0,0,1,.0124.41378,2.104,2.104,0,0,0,.01026.22328.43437.43437,0,0,0,.01321.05507.22645.22645,0,0,1,.00817.05875.2875.2875,0,0,0-.006.12466q.0015.124.00425.248c.00037.01684.00376.03327.00451.05016a.52291.52291,0,0,1,.01069.132.63275.63275,0,0,0,.01459.13919l.00867-.00485c.00876-.09387.01979-.18708.02521-.28192a1.21467,1.21467,0,0,0-.01082-.12721c-.004-.07181-.00754-.14407-.00841-.21631q-.00213-.17489-.00024-.35c.001-.08507.00512-.17.00806-.2614l.00178.04259.00907-.00155c-.0039-.05449-.00939-.10871-.0112-.16355a1.19184,1.19184,0,0,1,.00286-.13679.34081.34081,0,0,1,.03245-.15306c.04436-.065.10876-.02327.12489.09018a1.632,1.632,0,0,1,.02692.27152,5.194,5.194,0,0,0,.04212.54534c.00441.06346.00294.12893.0048.19339a.18911.18911,0,0,0,.00552.05179,1.19506,1.19506,0,0,1,.028.25408c.0124.08515.01377.17842.02123.28648L3.5044,2.78673l-.00619.00185.03873.53292.00943-.00289A.80694.80694,0,0,0,3.561,2.996l-.00609.08447a.51686.51686,0,0,1,.0028-.20378.402.402,0,0,0,.00853-.04626,2.83535,2.83535,0,0,0-.00058-.36572c-.0106-.085.00862-.15439-.00055-.23237-.009-.07636-.0104-.158-.01191-.23763a.71991.71991,0,0,1,.01141-.0976l.00189-.02451c-.02768-.0331-.01366-.09013-.01074-.13035.00755-.10424-.00788-.209.00949-.31507.00991-.06048-.00372-.13845-.00005-.20673.00322-.0599.01555-.11743.02437-.17562a.28716.28716,0,0,1,.009-.03472c.02322-.08379.09492-.11332.12215-.03962A1.09842,1.09842,0,0,1,3.76,1.1573c.00639.03936.00637.084.0092.12624a2.21272,2.21272,0,0,0,.03851-.261c.0052-.05645.03731-.10335.05643-.09065.01037.00689.01961.02251.03.02885.00679.00414.01474-.00131.02474-.00286a.2471.2471,0,0,1,.01921.12683.28085.28085,0,0,0,.0171.07664.10831.10831,0,0,1,.00669.02782.799.799,0,0,0,.01173.19419c.00114.04332-.0018.08762.001.13019q.01751.26763.03765.53439c.00919.12154.02043.2423.03084.3643.02111-.01834.02169-.03832.00886-.07448a.51214.51214,0,0,1-.01027-.0893c.02537-.00249.02247-.02457.01564-.06621a.45547.45547,0,0,1-.0004-.2127.09922.09922,0,0,0,.00081-.0431.32938.32938,0,0,1-.00805-.14523A.34549.34549,0,0,0,4.05005,1.727a.44634.44634,0,0,1,.00921-.11755,1.10873,1.10873,0,0,0,.00045-.16586c.00037-.1141.00164-.22818.00229-.34227.0003-.05159-.00361-.10479.00072-.15447C4.07321.82666,4.05905.70219,4.07892.583c.00843-.05058.0047-.11081.01045-.16451.00267-.02489.01551-.06443.0225-.06315.02383.00437.05207-.05447.07195.0315A.63821.63821,0,0,1,4.209.60921c-.00034.08082.00682.1618.011.24957A.28033.28033,0,0,0,4.2544.70657.2406.2406,0,0,1,4.31171.53446c.02718-.03054.0518.00386.07294.03442a.24324.24324,0,0,1,.022.08979c.00628.06115.00794.12463.01227.18688.00459.06606.01.13183.01447.18957a.18042.18042,0,0,1,.0483.00079c.02761.00751.04648.06614.04122.12594-.002.02229-.01338.04213.00512.06a.24959.24959,0,0,1-.00522.08714.49492.49492,0,0,0-.01347.21648.22.22,0,0,0-.01339.17641c-.03014.04019-.01.10213-.01581.16559l.01912-.03288.005.00544a.37983.37983,0,0,1-.00985.03981.22167.22167,0,0,0-.01259.13335L4.48521,2.03a.22125.22125,0,0,0-.00409.11535c.00348.10828.00332.21717.00694.32541.00178.05327.00876.10566.01422.168l-.01962-.02342a.34943.34943,0,0,0,.00907.14825.5523.5523,0,0,1,.00113.10956l-.01826-.05841.007.18542.013-.03451.00345.00864a1.32033,1.32033,0,0,1-.011.27207.26265.26265,0,0,0,.00417.07452.35193.35193,0,0,1,.00471.12325c0,.04862,0,.07935,0,.11008a.27226.27226,0,0,0,.00038.05292.14235.14235,0,0,1-.02739.1303.03155.03155,0,0,1-.053.00546.28237.28237,0,0,1-.05318-.19049,1.30121,1.30121,0,0,0-.01028-.152A.30292.30292,0,0,1,4.36062,3.282a.4141.4141,0,0,0,.00275-.12328A3.05613,3.05613,0,0,1,4.35748,2.732c.00186-.03236.01142-.08181-.01324-.10228l-.00235-.0118c-.00179-.05189-.00406-.10376-.00493-.15574-.0021-.12588-.004-.25179-.005-.37773-.00045-.05755.00183-.11519.002-.1728a.14658.14658,0,0,0-.00479-.04892.19037.19037,0,0,1-.01229-.12784.18821.18821,0,0,0-.0011-.03727.153.153,0,0,0-.02276.04076.26272.26272,0,0,0-.01412.088,1.31072,1.31072,0,0,1,.00923.21316c0,.08156.01016.16288.01233.24478a.90727.90727,0,0,1-.00752.14827.82541.82541,0,0,0-.00315.18982c.00695.08591.00952.1749.00879.26234-.001.11525-.007.23027-.01061.34543a.19469.19469,0,0,0,.00945.03272L4.302,3.152l.00994.00127c-.00166.081-.00382.162-.00482.243-.00078.06349.00038.12709-.00025.1906-.00092.09349.00173.189-.00651.27925a.08488.08488,0,0,1-.05278.06573c-.02448.00388-.04985-.02086-.07683-.03426-.00588.1333-.05446.09139-.08606.10674a.8617.8617,0,0,1-.03763-.102,1.25249,1.25249,0,0,1-.016-.12685l.025.0349c-.00647-.02684-.00958-.04149-.01339-.05515a.214.214,0,0,1-.01633-.05775.51318.51318,0,0,0-.01569-.16892.22552.22552,0,0,1-.004-.046,3.054,3.054,0,0,0-.0227-.42683c-.00445-.061-.00428-.1238-.00932-.18448-.00652-.07856-.01672-.15555-.02422-.23375-.00412-.043-.00682-.08693-.00856-.13076-.00139-.03482.0123-.07463-.0083-.10284a.07962.07962,0,0,1-.002-.03126.26459.26459,0,0,0-.00832-.13454V2.313l-.00413.00161L3.90592,2.239l-.01118.00153c-.00042.08235-.00293.165-.00065.247.00226.08115.01515.16239.013.24222-.00367.13919-.01533.2773-.02346.41591a.14468.14468,0,0,0,0,.03993,1.24549,1.24549,0,0,1,.01816.21577.65.65,0,0,1-.00154.19879.29123.29123,0,0,0,.00537.07772c.00928.05571-.00133.11622-.02646.12594a.1267.1267,0,0,1-.06687.00645c-.00708-.00117-.01543-.02648-.01955-.04489A1.69857,1.69857,0,0,1,3.762,3.43219a.70179.70179,0,0,0-.00762-.17176c-.029-.06853.00071-.16131-.02763-.22157A.1057.1057,0,0,1,3.72795,3.001a1.39532,1.39532,0,0,0,.0083-.142,1.08277,1.08277,0,0,0-.01743-.15793c-.00435-.04785-.00486-.09743-.00757-.1461-.0025-.04479-.00565-.08939-.00857-.13406a.1442.1442,0,0,1-.00186-.02633,1.34669,1.34669,0,0,0-.0066-.2529c-.00048-.01641.00939-.0342.00907-.05083-.00092-.04856-.00458-.09687-.00805-.16185L3.666,2.04218V1.97033a.16567.16567,0,0,0-.019.13271,1.02991,1.02991,0,0,1,.00235.12732c.0006.04154-.01525.08981.01261.121a.1701.1701,0,0,1,.006.0664c-.02417.03241-.0049.07809-.00887.11554a1.00694,1.00694,0,0,0-.00567.12329.27916.27916,0,0,0,.01443.0603l.006.02664a1.0437,1.0437,0,0,0-.02321.35895c.00323.102.01248.20332.014.30531.00143.09674-.00424.19393-.00571.291-.0005.033.0038.06636.00318.09929-.00081.04295-.00434.08563-.00671.12843l-.0085-.00043.01965.04836a.259.259,0,0,0,.01008.19487c-.00614.01029-.0009.027-.00205.04839a.42326.42326,0,0,1-.01868.11007c-.01266.03543-.07484.04371-.09027.01361a.32292.32292,0,0,1-.025-.0896c-.014-.09069-.0243-.18429-.03848-.27483A.7159.7159,0,0,1,3.493,3.81033a1.32931,1.32931,0,0,0-.01231-.1775c-.00253-.03392-.00424-.06816-.00849-.101l-.01262-.10609q-.01859-.163-.03683-.32628a.2721.2721,0,0,1-.00373-.066.60358.60358,0,0,0-.01467-.23661l.00769.115-.00708.00262-.06244-.83335a.68414.68414,0,0,0-.01381.2878L3.31919,2.422c.01839.01528.00864.03426.00233.05592a.14119.14119,0,0,0-.00275.03927c.00319.081.00739.1618.0102.24286a.50147.50147,0,0,1-.00437.05752.33124.33124,0,0,0-.00394.05044,1.70537,1.70537,0,0,1-.00037.31512.11674.11674,0,0,0,.00022.02028.37332.37332,0,0,1-.006.15818.251.251,0,0,0-.00041.049l.01238-.04234.00612.00166q0,.22978,0,.45957L3.3324,3.8429a1.25963,1.25963,0,0,1,.0127.257c.00084.09414-.047.18369-.08665.15073-.0428-.03561-.05671-.09053-.05062-.1973a.11558.11558,0,0,0-.0019-.0384.25358.25358,0,0,1-.01229-.122,1.88783,1.88783,0,0,0-.00881-.20345c-.001-.01365-.01811-.02323-.0182-.035-.00067-.0937.001-.18748.002-.28123a.32761.32761,0,0,0,.001-.03495q-.02537-.2412-.05182-.48181c-.001-.00894-.00955-.01281-.01145-.02224a.34728.34728,0,0,1-.00671-.05469c.02345-.023.009-.05283.00468-.08287a.23535.23535,0,0,1,.00191-.14823.04965.04965,0,0,0,.001-.01968,1.46858,1.46858,0,0,0-.03139-.17848l-.01277.09484L3.05,2.34346,3.044,2.34613c.00167.07095.00371.14187.00484.21286a.37772.37772,0,0,1-.00231.09192.77773.77773,0,0,0-.001.20988l.009.00159.0077-.06708L3.07,2.88918l-.01729-.00437c.0316.02578.01632.075.01149.1132a.70753.70753,0,0,0,.01368.17172c.00236.02453.00149.05063.00384.07517.00228.02386-.01123.06628.01391.066l-.00183.08448c-.00144.07363-.00508.14752-.00346.22082.00115.052.01086.10287.0138.15508a.27194.27194,0,0,1-.00846.05776c.004.08032.00285.16228.01316.23613a1.112,1.112,0,0,1-.00089.26745.13722.13722,0,0,1-.02185.06488.08351.08351,0,0,1-.04859.02441c-.00674.00149-.018-.008-.02063-.01986-.01621-.07277-.03055-.14766-.04551-.22184.02564-.103-.02046-.18372-.01746-.27773.00423-.13292-.01447-.26079-.01345-.3928a.29308.29308,0,0,0-.01853-.07081l.01033-.009c-.00587-.00855-.01484-.01477-.01532-.02339-.00452-.08107-.00928-.16243-.01037-.24395-.00054-.04022.01137-.08012-.01572-.10363a.20819.20819,0,0,1,.00573-.11248L2.8651,2.62766c-.03409.01556.0062.08447-.016.10986l-.01117-.024-.00275.00905c.004.06812.0089.136.01219.20429.00228.04717.0053.09564.00289.14219-.00566.10932.01855.21088.00865.32568a1.21569,1.21569,0,0,0,.02225.25464.61481.61481,0,0,1-.00164.144c-.00315.041-.0066.085-.011.1274l.02211-.00493L2.8763,4.104c-.02634-.0173-.04135.14087-.07457.01142l-.0021.05941c-.00714-.0344-.00961-.05253-.01426-.06713-.006-.01879-.01423-.03388-.02056-.0522a.21558.21558,0,0,1-.01324-.04936q-.02266-.22876-.04366-.45834a.57185.57185,0,0,1-.006-.09308,1.24734,1.24734,0,0,0-.02265-.26125.34095.34095,0,0,1-.002-.13562.10219.10219,0,0,0-.00077-.044,1.54685,1.54685,0,0,1-.024-.2989c-.00385-.02374-.0105-.04512-.01483-.06855-.00517-.028-.00924-.057-.01676-.10414L2.6407,2.577l.00772-.00985-.03652-.15583a.80856.80856,0,0,0-.03036.34826l.0105-.02923a.60144.60144,0,0,1-.01932.22686l.02242-.00687c-.00289.044-.00634.08585-.00818.1281-.00141.03239-.00049.06526-.00115.09786a.65106.65106,0,0,1-.00492.12941.26086.26086,0,0,0,.00523.1425l.00975-.02887.00606.01664c-.0086.07227.01894.15321-.01032.22064a.04829.04829,0,0,0-.00142.01905c.01813.14269-.00726.288.00522.43139a.60662.60662,0,0,1-.00022.11909c-.008.06637-.05833.11627-.0862.09177a.03191.03191,0,0,1-.00777-.01828c-.00311-.05074-.01829-.05534-.04059-.0462l-.01886-.35135-.01337.0021c0,.07458-.00034.14917.0001.22374a.34775.34775,0,0,1-.03316.1825c-.03474.056-.08182.01437-.097-.07346a1.51638,1.51638,0,0,1-.007-.29508.52757.52757,0,0,0-.00648-.09226A1.26826,1.26826,0,0,1,2.26929,3.579c.00308-.06153-.00051-.12512-.003-.1874a.03463.03463,0,0,0-.01992-.0286l-.011-.13147a.16851.16851,0,0,0-.03058.124c.00559.08887.00515.17962.0079.26947.00058.01883.00373.03731.00592.05581l.00308.01779c-.02562.062.00679.11022.00751.16564l.00269.20355a.65963.65963,0,0,1-.03547.22622.11085.11085,0,0,1-.03931.05281c-.02183.01622-.0313-.02107-.0393-.05872-.001-.00485-.00433-.00727-.00674-.01108-.0244.144-.06855.13527-.11132.12348a.04161.04161,0,0,1-.017-.02969c-.0067-.05107-.011-.10373-.01615-.15583l-.01574-.16-.0084.00336.00382.05712-.00765.00223-.0174-.44588-.01145.00153-.00631.18974-.00573.00153-.0081-.17843-.00747-.0018c0,.03526-.00209.07128.00037.10566a3.34387,3.34387,0,0,1,.00477.41422.54793.54793,0,0,1-.01505.12716c-.03079.09038-.088.06305-.10652-.04265-.0054-.03077-.02015-.0541-.02412-.08505-.00549-.04278-.00407-.08981-.007-.13458-.0059-.09163-.01445-.18258-.01838-.27458-.002-.047.00384-.09555.00564-.1435a.15181.15181,0,0,0-.00124-.044c-.03882-.05742-.023-.15532-.03428-.23245A1.59536,1.59536,0,0,1,1.676,3.20834c-.00153-.04161-.0003-.08373-.0003-.13878-.00452,0-.01652-.00825-.0217.00162a.12068.12068,0,0,0-.02628.09788c.02316.13376.01109.27861.02524.412.01034.09751-.00609.18537.00107.28254.01127.15288.00274.31421-.00172.47134-.00161.05677-.01877.11076-.04743.11811-.03176.00814-.06128-.04734-.07-.11164A.53013.53013,0,0,1,1.532,4.15948a.67866.67866,0,0,0-.01281-.11359c-.00295-.0511-.0011-.10351-.003-.15506-.00092-.0257-.00653-.0504-.00816-.07614-.00242-.03844-.00252-.07762-.00481-.11612-.00557-.09378-.01182-.18734-.0178-.281l-.01115.00065-.00772.06508-.00666.00243L1.453,3.34433l-.00634.00175c.00541.11026.01418.22032.0154.33081.00166.15027-.00287.30084-.00378.45131-.0002.03345.0032.06719.00567.10052.006.08129-.011.13416-.0477.14008a.44777.44777,0,0,1-.0715.00071l-.02921-.19361c-.00438.024-.01244.05535-.01551.089a.3525.3525,0,0,0,.00135.092.11809.11809,0,0,1-.02948.127.06992.06992,0,0,1-.05808.01177c-.0191-.00184-.033-.00192-.04339.04616-.02656.12325-.05736.14578-.11353.0886a.10179.10179,0,0,1-.01738-.05119c-.00632-.08249-.0091-.16634-.01528-.2489-.00838-.11195-.01936-.22291-.02774-.33485-.00244-.0326.00129-.0673.00024-.10072-.00211-.06731-.00555-.13441-.00845-.2016a.10194.10194,0,0,1-.01164-.1228A.83647.83647,0,0,1,.95447,3.4744c-.00834-.07772-.014-.15691-.02059-.23555a.20433.20433,0,0,1-.00266-.04509.386.386,0,0,0-.00939-.14881l-.008.00169c.00545.10345.01206.20668.01586.31043.002.05357-.00085.10809-.00192.16214-.00089.04537-.00511.0913-.00312.13591a2.76326,2.76326,0,0,1-.00261.50369c-.00645.04669-.02871.062-.06034.04017-.0203.06677-.03622.07345-.06873.03314a.07067.07067,0,0,0-.02838-.01853C.74776,4.2054.73469,4.19227.73378,4.14522.73353,4.132.72432,4.10874.7199,4.10952c-.00673.0012-.015.01642-.01886.03081-.013.04879-.051.10164-.07453.09277-.019-.00719-.03529-.02345-.03859-.07861a.241.241,0,0,0-.02177-.06564A.1199.1199,0,0,1,.55665,4.065a1.49916,1.49916,0,0,1-.02036-.1527C.53113,3.8006.53094,3.68778.52745,3.57561Q.52289,3.42893.51538,3.28275C.50957,3.17358.50118,3.06511.49526,2.956a1.45222,1.45222,0,0,1-.00438-.18082,1.9787,1.9787,0,0,0-.01231-.29522c-.005-.071.008-.14749.00923-.22185.0014-.0819-.00118-.16419-.00248-.24628-.00057-.03612-.003-.07215-.00306-.10823a.17167.17167,0,0,1,.00667-.04268c.00194-.00726.00719-.01.011-.01482l-.01915-.014c.02743-.03721.014-.09032.0114-.13893C.48522,1.56591.477,1.439.47041,1.31171A.66468.66468,0,0,1,.47373,1.2314C.47955,1.15023.489,1.0696.49088.988.492.93785.503.91439.51919.90594A.07313.07313,0,0,1,.63041.93488.13671.13671,0,0,1,.65418.99426c.00979.16523.017.33122.02518.49694a.38758.38758,0,0,0,.00448.05805c.00885.0407.00965.03982-.01316.04677,0,.05187-.00237.10557.00084.15752.00211.03412.01348.06485.01837.0988C.69244,1.87.68769,1.893.6903,1.91058A.25278.25278,0,0,0,.706,1.9581a.1111.1111,0,0,0-.00769.02664c-.00275.06019-.00459.1206-.00676.18194l.03062.04884a.58027.58027,0,0,0-.00989-.11876c-.00439-.0241-.02007-.04924.00582-.05559C.71713,2.02434.717,2.00691.71482,1.99088A.23074.23074,0,0,0,.70581,1.95791Zm.81973.58917c.01939.01833.01439-.02777.01434-.05806a.6045.6045,0,0,1-.00113-.12778c.01911-.05517-.0019-.10755.00713-.16458a.30481.30481,0,0,0-.04436-.17334ZM1.28988,4.20694l.01076-.001a.72228.72228,0,0,0-.01076-.34426Zm2.4986-2.45665.012-.00594-.0251-.27019L3.767,1.47794A.89328.89328,0,0,0,3.78848,1.75029ZM1.45061,2.99446l.02031.39382A1.2631,1.2631,0,0,0,1.45061,2.99446ZM1.047,3.49018a.55417.55417,0,0,0-.01127.06236c-.00119.01559.0039.03309.00449.05.00087.02473.00022.04973.00022.07878C1.07517,3.63361,1.07517,3.63361,1.047,3.49018ZM2.95426,2.7035a.1936.1936,0,0,0-.01544-.195ZM2.826,2.41844l.00934-.00236-.01058-.26757-.011.00244Zm1.3426.46957L4.16175,2.7397c-.01193.03206.00387.09069-.02653.08453l.00714.077Zm-3.12349.5655L1.0385,3.28937C1.04951,3.32054,1.01138,3.38518,1.04506,3.4535Zm.48022-.8779-.009.0017.00807.19783.00092-.001Zm.87514.69963L2.38717,3.279l.00752.13557.00982-.00268Z"/><text x="0" y="20" fill="#000000" font-size="5px" font-weight="bold" font-family="'Helvetica Neue', Helvetica, Arial-Unicode, Arial, Sans-serif">Created by Alice Noir</text><text x="0" y="25" fill="#000000" font-size="5px" font-weight="bold" font-family="'Helvetica Neue', Helvetica, Arial-Unicode, Arial, Sans-serif">from the Noun Project</text></svg>